<?xml version="1.0" encoding="UTF-8"?> <svg xmlns="http://www.w3.org/2000/svg" viewBox="-30 1 511 511.999"><path d="m.5 407c0 57.894531 47.101562 105 105 105s105-47.105469 105-105c0-18.429688-4.847656-36.5625-13.992188-52.402344l-68.570312-119.617187c9.214844-5.324219 16.375-13.816407 19.980469-23.980469h32.582031v-30h-32.582031c-4.527344-12.765625-14.65625-22.894531-27.417969-27.421875v-35.476563c25.847656-6.675781 45-30.195312 45-58.101562 0-33.085938-26.917969-60-60-60-33.085938 0-60 26.914062-60 60 0 27.90625 19.152344 51.421875 45 58.101562v35.476563c-12.765625 4.527344-22.894531 14.65625-27.421875 27.421875h-32.578125v30h32.578125c3.605469 10.164062 10.765625 18.65625 19.980469 23.980469l-68.542969 119.574219c-9.167969 15.882812-14.015625 34.015624-14.015625 52.445312zm105 75c-41.355469 0-75-33.644531-75-75 0-5.074219.515625-10.113281 1.523438-15.042969 19.398437 18.953125 45.738281 30.042969 73.476562 30.042969s54.078125-11.089844 73.476562-30.042969c1.003907 4.929688 1.523438 9.96875 1.523438 15.042969 0 41.355469-33.644531 75-75 75zm-60.375-120.515625 60.375-105.324219 60.375 105.324219c-14.046875 19-36.488281 30.515625-60.375 30.515625s-46.328125-11.515625-60.375-30.515625zm30.375-301.484375c0-16.542969 13.457031-30 30-30s30 13.457031 30 30c0 16.539062-13.457031 30-30 30s-30-13.460938-30-30zm15 136c0-8.273438 6.726562-15 15-15 8.269531 0 15 6.726562 15 15 0 5.527344-3.015625 10.355469-7.480469 12.957031l-7.519531-13.121093-7.523438 13.121093c-4.460937-2.601562-7.476562-7.429687-7.476562-12.957031zm0 0"></path><path d="m240.5 407c0 57.894531 47.101562 105 105 105s105-47.105469 105-105c0-18.429688-4.847656-36.5625-13.992188-52.402344l-68.570312-119.617187c9.214844-5.324219 16.375-13.816407 19.980469-23.980469h32.582031v-30h-32.582031c-4.527344-12.765625-14.65625-22.894531-27.417969-27.421875v-35.476563c25.847656-6.675781 45-30.195312 45-58.101562 0-33.085938-26.917969-60-60-60-33.085938 0-60 26.914062-60 60 0 27.90625 19.152344 51.425781 45 58.101562v35.476563c-12.765625 4.527344-22.894531 14.65625-27.421875 27.421875h-32.578125v30h32.578125c3.605469 10.164062 10.765625 18.65625 19.980469 23.980469l-68.542969 119.578125c-9.167969 15.878906-14.015625 34.011718-14.015625 52.441406zm105 75c-41.355469 0-75-33.644531-75-75 0-5.074219.515625-10.113281 1.523438-15.042969 19.398437 18.953125 45.738281 30.042969 73.476562 30.042969s54.078125-11.089844 73.476562-30.042969c1.003907 4.929688 1.523438 9.96875 1.523438 15.042969 0 41.355469-33.644531 75-75 75zm-60.375-120.515625 60.375-105.324219 60.375 105.324219c-14.046875 19-36.488281 30.515625-60.375 30.515625s-46.328125-11.515625-60.375-30.515625zm30.375-301.484375c0-16.542969 13.457031-30 30-30s30 13.457031 30 30c0 16.539062-13.457031 30-30 30s-30-13.460938-30-30zm15 136c0-8.273438 6.726562-15 15-15 8.269531 0 15 6.726562 15 15 0 5.527344-3.015625 10.355469-7.480469 12.957031l-7.519531-13.121093-7.523438 13.121093c-4.460937-2.601562-7.476562-7.429687-7.476562-12.957031zm0 0"></path></svg> 