<?xml version="1.0" encoding="UTF-8"?> <svg xmlns="http://www.w3.org/2000/svg" viewBox="0 0 512 512"><path d="m271 30c-5.320312 0-10.703125.175781-15.988281.527344l-14.011719.925781v28.546875h-30v-60h-90v30h-15c-19.554688 0-36.226562 12.542969-42.421875 30h-63.578125v30h63.578125c6.195313 17.457031 22.867187 30 42.421875 30h15v30h90v-60h30v32.09375l16.351562-1.480469c4.507813-.40625 9.097657-.613281 13.648438-.613281 83.261719 0 151 67.738281 151 151s-67.738281 151-151 151c-82.710938 0-150-67.738281-150-151 0-23.949219 5.507812-47.546875 15.933594-68.238281l7.355468-14.601563-84.113281-33.644531-6.042969 12.710937c-15.132812 31.816407-23.132812 67.699219-23.132812 103.773438 0 132.375 107.441406 241 240 241 132.488281 0 241-108.53125 241-241 0-132.488281-108.53125-241-241-241zm-165 60c-8.269531 0-15-6.730469-15-15s6.730469-15 15-15h15v30zm75 30h-30v-90h30zm90 362c-115.792969 0-210-94.652344-210-211 0-26.84375 5.03125-53.53125 14.636719-77.988281l27.863281 11.144531c-8.210938 20.988281-12.5 43.800781-12.5 66.84375 0 99.269531 80.574219 181 180 181 99.371094 0 181-81.652344 181-181 0-99.371094-81.652344-181-181-181v-30c116.347656 0 211 94.652344 211 211s-94.652344 211-211 211zm0 0"></path></svg> 