<?xml version="1.0" encoding="UTF-8"?> <svg xmlns="http://www.w3.org/2000/svg" viewBox="0 0 512 512.00002"><path d="m97.351562 89.921875-97.351562 136.96875 255.949219 285.109375 255.953125-285.109375-97.351563-136.96875zm227.578126 150.863281-68.980469 202.335938-68.976563-202.335938zm-129.074219-29.972656 60.09375-80.792969 60.097656 80.792969zm89.921875-90.917969h96.703125l-39.066407 77.488281zm-117.289063 77.488281-39.066406-77.488281h96.703125zm-26.796875 13.429688h-93.492187l54.695312-76.957031zm13.613282 29.972656 62.789062 184.175782-165.339844-184.175782zm201.292968 0h102.550782l-165.339844 184.175782zm13.613282-29.972656 38.796874-76.957031 54.695313 76.957031zm0 0"></path><path d="m30.152344 0h29.972656v29.972656h-29.972656zm0 0"></path><path d="m30.152344 59.945312h29.972656v29.976563h-29.972656zm0 0"></path><path d="m.179688 29.972656h29.972656v29.972656h-29.972656zm0 0"></path><path d="m60.125 29.972656h29.972656v29.972656h-29.972656zm0 0"></path><path d="m421.804688 390.652344h29.972656v29.976562h-29.972656zm0 0"></path><path d="m421.804688 450.601562h29.972656v29.972657h-29.972656zm0 0"></path><path d="m391.832031 420.628906h29.972657v29.972656h-29.972657zm0 0"></path><path d="m451.777344 420.628906h29.972656v29.972656h-29.972656zm0 0"></path></svg> 