<?xml version="1.0" encoding="UTF-8"?> <svg xmlns="http://www.w3.org/2000/svg" viewBox="0 -15 512 512"><path d="m166 481c33.152344 0 64.046875-9.835938 89.933594-26.730469 26.785156 17.519531 57.699218 26.730469 90.066406 26.730469 91.53125 0 166-74.019531 166-165 0-80-58.027344-147.171875-134.554688-161.992188l76.820313-74.859374-38.925781-79.148438h-138.679688l-38.921875 79.148438 76.921875 74.960937c-20.828125 4.007813-40.734375 11.96875-58.628906 23.597656-26.773438-17.503906-57.675781-26.707031-90.03125-26.707031-91.53125 0-166 74.019531-166 165s74.46875 165 166 165zm233.113281-390-38.113281 37.144531v-37.144531zm-68.113281 37.144531-38.113281-37.144531h38.113281zm65.660156-98.144531 15.246094 31h-131.8125l15.246094-31zm-47.054687 150.988281c73.519531 1.773438 132.394531 61.824219 132.394531 135.011719 0 74.4375-61.011719 135-136 135-23.09375 0-45.265625-5.75-65.09375-16.710938 7.378906-7.171874 14.097656-15.019531 20.039062-23.453124 14.003907 6.679687 29.332032 10.164062 45.054688 10.164062 58.050781 0 106-47.113281 106-105 0-57.8125-47.886719-105-106-105-57.898438 0-105 47.101562-105 105 0 19.660156-7.613281 37.566406-20.035156 50.953125-6.546875-16.085937-9.964844-33.410156-9.964844-50.953125 0-72.542969 57.417969-132.925781 131.410156-134.996094zm-33.582031 66.28125c9.1875-4.023437 19.320312-6.269531 29.976562-6.269531 41.90625 0 76 33.644531 76 75s-34.09375 75-76 75c-10.425781 0-20.605469-2.152344-30.011719-6.277344 9.628907-20.933594 15.011719-44.210937 15.011719-68.722656 0-23.796875-5.152344-47.273438-14.976562-68.730469zm-120.046876 137.460938c-9.1875 4.023437-19.320312 6.269531-29.976562 6.269531-41.90625 0-76-33.644531-76-75s34.09375-75 76-75c10.414062 0 20.582031 2.144531 29.976562 6.261719-9.757812 21.296875-14.976562 44.675781-14.976562 68.738281 0 23.792969 5.152344 47.273438 14.976562 68.730469zm-29.976562-203.730469c23.066406 0 45.21875 5.734375 65.027344 16.675781-7.449219 7.230469-14.144532 15.089844-20.03125 23.460938-13.992188-6.664063-29.296875-10.136719-44.996094-10.136719-58.050781 0-106 47.113281-106 105 0 57.808594 47.882812 105 106 105 57.898438 0 105-47.101562 105-105 0-19.660156 7.613281-37.566406 20.035156-50.957031 6.546875 16.089843 9.964844 33.414062 9.964844 50.957031 0 74.4375-60.5625 135-135 135-74.992188 0-136-60.5625-136-135s61.007812-135 136-135zm0 0"></path></svg> 