<?xml version="1.0" encoding="UTF-8"?> <svg xmlns="http://www.w3.org/2000/svg" viewBox="0 0 512 512"><path d="m0 437c0 41.355469 33.644531 75 75 75h362c41.355469 0 75-33.644531 75-75v-32.847656l-30-120c0-7.394532 0-198.015625 0-209.152344 0-41.355469-33.644531-75-75-75h-302c-41.355469 0-75 33.644531-75 75v209.152344l-30 120zm437 45h-362c-24.8125 0-45-20.1875-45-45v-16h452v16c0 24.8125-20.1875 45-45 45zm-362-392h362c8.269531 0 15 6.730469 15 15v166h-46.757812l-15-120h-268.484376l-15 120h-46.757812v-166c0-8.269531 6.730469-15 15-15zm136 226c0 8.269531-6.730469 15-15 15-8.523438 0-16-7.007812-16-15 0-2.3125 2.21875-6.148438 2.945312-7.410156l13.054688-22.609375 13.035156 22.574219c1.324219 2.289062 1.964844 4.722656 1.964844 7.445312zm-30-64.035156-24.035156 41.625c-3.242188 5.613281-6.964844 13.234375-6.964844 22.410156 0 24.394531 21.066406 45 46 45 24.8125 0 45-20.1875 45-45 0-8.015625-2.011719-15.5625-5.980469-22.441406l-24.019531-41.59375v-70.964844h90v70.964844l-24.035156 41.625c-3.957032 6.851562-5.964844 14.394531-5.964844 22.410156 0 24.8125 20.1875 45 45 45s45-20.1875 45-45c0-8.015625-2.011719-15.5625-5.980469-22.441406l-24.019531-41.59375v-70.964844h32.757812l26.25 210h-268.015624l26.25-210h32.757812zm150 64.035156c0 8.269531-6.730469 15-15 15s-15-6.730469-15-15c0-2.71875.636719-5.144531 1.945312-7.410156l13.054688-22.609375 13.035156 22.574219c1.324219 2.289062 1.964844 4.722656 1.964844 7.445312zm89.242188 75-11.25-90h46.292968l22.5 90zm-317.234376-90-11.25 90h-57.546874l22.5-90zm1.992188-271h302c20.273438 0 37.449219 13.476562 43.0625 31.9375-4.136719-1.253906-8.523438-1.9375-13.0625-1.9375h-362c-4.539062 0-8.925781.683594-13.0625 1.9375 5.613281-18.460938 22.789062-31.9375 43.0625-31.9375zm0 0"></path></svg> 