<?xml version="1.0" encoding="UTF-8"?> <svg xmlns="http://www.w3.org/2000/svg" viewBox="-61 0 512 512"><path d="m195 512c107.523438 0 195-87.925781 195-196 0-88.277344-58.371094-163.101562-138.351562-187.554688l51.667968-50.351562-39.046875-78.09375h-138.539062l-39.046875 78.09375 51.667968 50.351562c-79.980468 24.453126-138.351562 99.277344-138.351562 187.554688 0 108.074219 87.476562 196 195 196zm15-391.425781v-30.574219h38.113281l-31.96875 31.15625c-2.039062-.222656-4.085937-.425781-6.144531-.582031zm35.730469-90.574219 15 30h-131.460938l15-30zm-103.84375 60h38.113281v30.574219c-2.058594.15625-4.105469.359375-6.144531.582031zm53.113281 60c90.980469 0 165 74.46875 165 166s-74.019531 166-165 166-165-74.46875-165-166 74.019531-166 165-166zm0 0"></path><path d="m195 452c74.464844 0 135-61.425781 135-136 0-74.464844-60.4375-136-135-136-74.464844 0-135 61.425781-135 136 0 74.464844 60.4375 136 135 136zm0-242c57.898438 0 105 47.550781 105 106s-47.101562 106-105 106-105-47.550781-105-106 47.101562-106 105-106zm0 0"></path></svg> 