<?xml version="1.0" encoding="UTF-8"?> <svg xmlns="http://www.w3.org/2000/svg" viewBox="0 0 512 512"><path d="m60 437c0 41.355469 33.644531 75 75 75s75-33.644531 75-75-33.644531-75-75-75c-2.328125 0-4.628906.121094-6.90625.332031-24.621094-29.648437-38.09375-67.101562-38.09375-106.332031 0-91.53125 74.46875-166 166-166s166 74.46875 166 166c0 39.230469-13.472656 76.683594-38.09375 106.332031-2.277344-.210937-4.578125-.332031-6.90625-.332031-41.355469 0-75 33.644531-75 75s33.644531 75 75 75 75-33.644531 75-75c0-4.824219-.476562-9.539062-1.351562-14.113281 39.617187-46.226563 61.351562-105.160157 61.351562-166.886719 0-140.960938-115.050781-256-256-256-140.960938 0-256 115.050781-256 256 0 61.726562 21.734375 120.660156 61.351562 166.886719-.875 4.574219-1.351562 9.289062-1.351562 14.113281zm120 0c0 24.8125-20.1875 45-45 45s-45-20.1875-45-45 20.1875-45 45-45 45 20.1875 45 45zm197 45c-24.8125 0-45-20.1875-45-45s20.1875-45 45-45 45 20.1875 45 45-20.1875 45-45 45zm-347-226c0-124.617188 101.382812-226 226-226s226 101.382812 226 226c0 49.601562-15.859375 97.140625-45.023438 136.023438-6.089843-8.101563-13.792968-14.921876-22.613281-20.011719 24.390625-33.363281 37.636719-73.828125 37.636719-116.011719 0-107.652344-88.367188-196-196-196-107.636719 0-196 88.351562-196 196 0 42.183594 13.246094 82.648438 37.636719 116.011719-8.820313 5.089843-16.523438 11.910156-22.613281 20.011719-29.164063-38.882813-45.023438-86.421876-45.023438-136.023438zm0 0"></path></svg> 