<?xml version="1.0" encoding="UTF-8"?> <svg xmlns="http://www.w3.org/2000/svg" viewBox="0 0 512 512.00102"><path d="m62.40625 95.3125c-.855469 3.460938-1.320312 7.074219-1.320312 10.796875 0 24.789063 20.167968 44.953125 44.953124 44.953125 8.019532 0 15.546876-2.121094 22.070313-5.8125 26.808594 15.515625 54.574219 26.089844 82.820313 31.503906v27.296875c-10.636719-4.953125-22.953126-8.035156-37.175782-8.035156-56.488281 0-97.105468 46.976563-97.105468 104.132813 0 61.691406 47.597656 101.324218 119.648437 161.3125 15.796875 13.148437 32.128906 26.746093 49.769531 42.035156l9.8125 8.503906 9.8125-8.503906c14.898438-12.910156 28.914063-24.742188 42.46875-36.179688 81.078125-68.433594 126.953125-108.164062 126.953125-167.167968 0-57.175782-40.640625-104.132813-97.109375-104.132813-14.222656 0-26.539062 3.074219-37.171875 8.015625v-27.28125c28.242188-5.414062 56.007813-15.984375 82.820313-31.5 6.523437 3.691406 14.050781 5.8125 22.066406 5.8125 24.789062 0 44.953125-20.167969 44.953125-44.953125 0-3.722656-.460937-7.335937-1.320313-10.800781 38.222657-37.195313 61.382813-79.015625 62.40625-80.890625l-26.269531-14.417969c-.222656.402344-20.476562 36.871094-53.117187 69.9375-7.460938-5.511719-16.679688-8.78125-26.652344-8.78125-24.785156 0-44.953125 20.167969-44.953125 44.953125 0 5.628906 1.050781 11.015625 2.949219 15.988281-21.890625 12.058594-44.367188 20.414063-67.113282 24.9375-7.175781-15.308594-22.726562-25.941406-40.722656-25.941406s-33.546875 10.632812-40.722656 25.941406c-22.742188-4.523437-45.222656-12.878906-67.113281-24.9375 1.898437-4.972656 2.949219-10.359375 2.949219-15.988281 0-24.785156-20.167969-44.953125-44.953126-44.953125-9.96875 0-19.1875 3.269531-26.652343 8.78125-32.640625-33.066406-52.894531-69.535156-53.117188-69.9375l-26.269531 14.421875c1.027344 1.871094 24.183594 43.691406 62.40625 80.890625zm342.738281 204.832031c0 44.78125-38.875 78.90625-116.316406 144.269531-10.625 8.96875-21.535156 18.175782-32.957031 27.976563-14.324219-12.253906-28.03125-23.667969-40.398438-33.964844-67.882812-56.515625-108.859375-90.632812-108.859375-138.28125 0-42.28125 28.867188-74.164062 67.140625-74.164062 47.851563 0 65.703125 54.132812 67.578125 60.304687l3.230469 10.609375 22.621094.027344 3.226562-10.652344c1.871094-6.171875 19.652344-60.285156 67.59375-60.285156 38.277344 0 67.140625 31.882813 67.140625 74.160156zm.574219-209.019531c8.261719 0 14.984375 6.722656 14.984375 14.984375s-6.722656 14.984375-14.984375 14.984375-14.984375-6.722656-14.984375-14.984375 6.722656-14.984375 14.984375-14.984375zm-149.839844 59.9375c8.261719 0 14.984375 6.722656 14.984375 14.984375v60.363281c-6.03125 6.585938-10.996093 13.5625-15.007812 20.199219-4.003907-6.617187-8.953125-13.574219-14.960938-20.140625v-60.421875c0-8.261719 6.722657-14.984375 14.984375-14.984375zm-149.839844-59.9375c8.261719 0 14.984376 6.722656 14.984376 14.984375s-6.722657 14.984375-14.984376 14.984375c-8.261718 0-14.984374-6.722656-14.984374-14.984375s6.722656-14.984375 14.984374-14.984375zm0 0"></path></svg> 