<?xml version="1.0" encoding="UTF-8"?> <svg xmlns="http://www.w3.org/2000/svg" viewBox="0 1 511 511.99999"><path d="m288.28125 2.101562-16.851562-2.101562v30.121094h-29.992188v-30.121094l-16.851562 2.101562c-126.132813 15.726563-224.085938 125.308594-224.085938 254.964844 0 140.570313 114.8125 254.933594 255.933594 254.933594 141.125 0 255.9375-114.363281 255.9375-254.933594 0-129.664062-97.960938-239.238281-224.089844-254.964844zm13.140625 32.515626c89.519531 18.136718 158.695313 89.070312 176.484375 177.457031h-56.210938c-6.339843-68.632813-55.003906-127.078125-120.273437-145.726563zm-71.996094 58.191406 12.011719-2.441406v-30.253907h29.992188v30.253907l12.015624 2.441406c62.113282 12.609375 108.957032 70.328125 108.957032 134.265625 0 74.417969-60.996094 134.964843-135.96875 134.964843-74.96875 0-135.964844-60.546874-135.964844-134.964843 0-63.9375 46.839844-121.660157 108.957031-134.265625zm-17.980469-58.191406v31.730468c-65.21875 18.636719-113.925781 77.039063-120.269531 145.726563h-56.210937c17.789062-88.390625 86.960937-159.320313 176.480468-177.457031zm-180.460937 207.453124h60.1875c2.246094 24.65625 9.96875 47.761719 21.957031 68.105469l-57.074218 50.730469c-16.316407-31.085938-25.5625-66.40625-25.5625-103.839844 0-5.035156.167968-10.039062.492187-14.996094zm41.015625 144.792969 58.730469-52.207031c16.285156 18.769531 36.738281 33.859375 59.917969 43.847656l-20 86.644532c-39.855469-16.34375-74.027344-43.714844-98.648438-78.285157zm127.226562 87.832031 20.042969-86.835937c11.953125 2.726563 24.390625 4.171875 37.164063 4.171875 13.066406 0 25.785156-1.515625 37.988281-4.367188l19.335937 87c-18.3125 4.785157-37.523437 7.34375-57.324218 7.34375-19.757813 0-38.929688-2.546874-57.207032-7.3125zm143.125-9.601562-19.320312-86.945312c21.015625-9.1875 39.761719-22.582032 55.15625-39.109376l56.320312 56.320313c-23.972656 30.527344-55.679687 54.75-92.15625 69.734375zm109.34375-94.960938-54.992187-54.992187c13.71875-21.515625 22.566406-46.386719 24.996094-73.070313h60.1875c.324219 4.960938.492187 9.960938.492187 14.996094 0 41.191406-11.191406 79.824219-30.683594 113.066406zm0 0"></path><path d="m235.222656 437.019531 21.207032-21.210937 21.207031 21.210937-21.207031 21.207031zm0 0"></path><path d="m377.402344 421.210938-21.207032-21.207032 21.207032-21.210937 21.210937 21.210937zm0 0"></path><path d="m422.738281 287.058594 21.207031-21.207032 21.207032 21.207032-21.207032 21.207031zm0 0"></path><path d="m114.253906 399.996094 21.207032-21.207032 21.210937 21.207032-21.210937 21.207031zm0 0"></path><path d="m69.140625 265.847656 21.207031 21.207032-21.207031 21.207031-21.207031-21.207031zm0 0"></path></svg> 